<mxfile host="app.diagrams.net" modified="2023-04-11T10:00:25.374Z" agent="Mozilla/5.0 (Windows NT 10.0; Win64; x64) AppleWebKit/537.36 (KHTML, like Gecko) Chrome/112.0.0.0 Safari/537.36 Edg/112.0.1722.34" etag="pCceisVabT5RusrzdyfK" version="21.1.5" type="device">
  <diagram name="Страница 1" id="AlWjFvV_yQSTGhxQlN06">
    <mxGraphModel dx="1434" dy="1933" grid="1" gridSize="10" guides="1" tooltips="1" connect="1" arrows="1" fold="1" page="1" pageScale="1" pageWidth="827" pageHeight="1169" math="0" shadow="0">
      <root>
        <mxCell id="0" />
        <mxCell id="1" parent="0" />
        <mxCell id="DFxk23uKk1N8A2w4wF_O-1" value="Пользователь" style="shape=umlActor;verticalLabelPosition=bottom;verticalAlign=top;html=1;outlineConnect=0;" parent="1" vertex="1">
          <mxGeometry x="840" y="120" width="30" height="60" as="geometry" />
        </mxCell>
        <mxCell id="DFxk23uKk1N8A2w4wF_O-2" value="Аутентификация" style="ellipse;whiteSpace=wrap;html=1;" parent="1" vertex="1">
          <mxGeometry x="695" y="40" width="130" height="50" as="geometry" />
        </mxCell>
        <mxCell id="DFxk23uKk1N8A2w4wF_O-3" value="" style="endArrow=none;html=1;rounded=0;entryX=0.5;entryY=1;entryDx=0;entryDy=0;" parent="1" target="DFxk23uKk1N8A2w4wF_O-2" edge="1">
          <mxGeometry width="50" height="50" relative="1" as="geometry">
            <mxPoint x="840" y="160" as="sourcePoint" />
            <mxPoint x="729" y="120" as="targetPoint" />
          </mxGeometry>
        </mxCell>
        <mxCell id="sWBcIhw8JRlHLq3hAACJ-1" value="&quot;Включает&quot;" style="text;html=1;strokeColor=none;fillColor=none;align=center;verticalAlign=middle;whiteSpace=wrap;rounded=0;rotation=45;" parent="1" vertex="1">
          <mxGeometry x="755" y="120" width="60" height="30" as="geometry" />
        </mxCell>
        <mxCell id="sWBcIhw8JRlHLq3hAACJ-2" value="" style="endArrow=none;html=1;rounded=0;exitX=0.5;exitY=1;exitDx=0;exitDy=0;" parent="1" source="sWBcIhw8JRlHLq3hAACJ-3" edge="1">
          <mxGeometry width="50" height="50" relative="1" as="geometry">
            <mxPoint x="760" y="-50" as="sourcePoint" />
            <mxPoint x="760" y="40" as="targetPoint" />
          </mxGeometry>
        </mxCell>
        <mxCell id="sWBcIhw8JRlHLq3hAACJ-3" value="Регистрация аккаунта" style="ellipse;whiteSpace=wrap;html=1;" parent="1" vertex="1">
          <mxGeometry x="755" y="-70" width="130" height="50" as="geometry" />
        </mxCell>
        <mxCell id="sWBcIhw8JRlHLq3hAACJ-4" value="Просмотр информации об аккаунте" style="ellipse;whiteSpace=wrap;html=1;" parent="1" vertex="1">
          <mxGeometry x="570" y="-20" width="130" height="50" as="geometry" />
        </mxCell>
        <mxCell id="sWBcIhw8JRlHLq3hAACJ-5" value="" style="endArrow=none;html=1;rounded=0;exitX=0.5;exitY=1;exitDx=0;exitDy=0;entryX=0;entryY=0.5;entryDx=0;entryDy=0;" parent="1" source="sWBcIhw8JRlHLq3hAACJ-4" target="DFxk23uKk1N8A2w4wF_O-2" edge="1">
          <mxGeometry width="50" height="50" relative="1" as="geometry">
            <mxPoint x="830" y="-10" as="sourcePoint" />
            <mxPoint x="770" y="50" as="targetPoint" />
          </mxGeometry>
        </mxCell>
        <mxCell id="sWBcIhw8JRlHLq3hAACJ-6" value="&quot;Включает&quot;" style="text;html=1;strokeColor=none;fillColor=none;align=center;verticalAlign=middle;whiteSpace=wrap;rounded=0;rotation=-50;" parent="1" vertex="1">
          <mxGeometry x="780" width="60" height="30" as="geometry" />
        </mxCell>
        <mxCell id="sWBcIhw8JRlHLq3hAACJ-7" value="&quot;Включает&quot;" style="text;html=1;strokeColor=none;fillColor=none;align=center;verticalAlign=middle;whiteSpace=wrap;rounded=0;rotation=30;" parent="1" vertex="1">
          <mxGeometry x="630" y="40" width="60" height="30" as="geometry" />
        </mxCell>
        <mxCell id="sWBcIhw8JRlHLq3hAACJ-28" value="Животное" style="ellipse;whiteSpace=wrap;html=1;" parent="1" vertex="1">
          <mxGeometry x="885" y="60" width="130" height="50" as="geometry" />
        </mxCell>
        <mxCell id="sWBcIhw8JRlHLq3hAACJ-43" value="Просмотр информации о животном" style="ellipse;whiteSpace=wrap;html=1;" parent="1" vertex="1">
          <mxGeometry x="1060" y="-20" width="130" height="50" as="geometry" />
        </mxCell>
        <mxCell id="sWBcIhw8JRlHLq3hAACJ-44" value="&quot;Включает&quot;" style="text;html=1;strokeColor=none;fillColor=none;align=center;verticalAlign=middle;whiteSpace=wrap;rounded=0;rotation=-50;" parent="1" vertex="1">
          <mxGeometry x="885" y="130" width="60" height="30" as="geometry" />
        </mxCell>
        <mxCell id="sWBcIhw8JRlHLq3hAACJ-45" value="" style="endArrow=none;html=1;rounded=0;exitX=0.282;exitY=0.96;exitDx=0;exitDy=0;exitPerimeter=0;" parent="1" source="sWBcIhw8JRlHLq3hAACJ-28" edge="1">
          <mxGeometry width="50" height="50" relative="1" as="geometry">
            <mxPoint x="940" y="100" as="sourcePoint" />
            <mxPoint x="880" y="160" as="targetPoint" />
          </mxGeometry>
        </mxCell>
        <mxCell id="sWBcIhw8JRlHLq3hAACJ-47" value="" style="endArrow=none;html=1;rounded=0;" parent="1" source="sWBcIhw8JRlHLq3hAACJ-43" edge="1">
          <mxGeometry width="50" height="50" relative="1" as="geometry">
            <mxPoint x="1057" y="29" as="sourcePoint" />
            <mxPoint x="1015" y="81" as="targetPoint" />
          </mxGeometry>
        </mxCell>
        <mxCell id="sWBcIhw8JRlHLq3hAACJ-50" value="&quot;Включает&quot;" style="text;html=1;strokeColor=none;fillColor=none;align=center;verticalAlign=middle;whiteSpace=wrap;rounded=0;rotation=-40;" parent="1" vertex="1">
          <mxGeometry x="1040" y="50" width="60" height="30" as="geometry" />
        </mxCell>
        <mxCell id="sWBcIhw8JRlHLq3hAACJ-51" value="Поиск животного" style="ellipse;whiteSpace=wrap;html=1;" parent="1" vertex="1">
          <mxGeometry x="830" y="-130" width="130" height="50" as="geometry" />
        </mxCell>
        <mxCell id="sWBcIhw8JRlHLq3hAACJ-52" value="Удаление животного" style="ellipse;whiteSpace=wrap;html=1;" parent="1" vertex="1">
          <mxGeometry x="1015" y="-240" width="130" height="50" as="geometry" />
        </mxCell>
        <mxCell id="sWBcIhw8JRlHLq3hAACJ-53" value="Создание животного" style="ellipse;whiteSpace=wrap;html=1;" parent="1" vertex="1">
          <mxGeometry x="920" y="-190" width="130" height="50" as="geometry" />
        </mxCell>
        <mxCell id="sWBcIhw8JRlHLq3hAACJ-54" value="Изменение животного" style="ellipse;whiteSpace=wrap;html=1;" parent="1" vertex="1">
          <mxGeometry x="1060" y="-110" width="130" height="50" as="geometry" />
        </mxCell>
        <mxCell id="sWBcIhw8JRlHLq3hAACJ-56" value="" style="endArrow=none;html=1;rounded=0;entryX=0.338;entryY=0;entryDx=0;entryDy=0;entryPerimeter=0;exitX=0.5;exitY=1;exitDx=0;exitDy=0;" parent="1" source="sWBcIhw8JRlHLq3hAACJ-51" target="sWBcIhw8JRlHLq3hAACJ-28" edge="1">
          <mxGeometry width="50" height="50" relative="1" as="geometry">
            <mxPoint x="1000" y="10" as="sourcePoint" />
            <mxPoint x="922" y="64" as="targetPoint" />
          </mxGeometry>
        </mxCell>
        <mxCell id="sWBcIhw8JRlHLq3hAACJ-58" value="" style="endArrow=none;html=1;rounded=0;entryX=0.5;entryY=0;entryDx=0;entryDy=0;exitX=0.5;exitY=1;exitDx=0;exitDy=0;" parent="1" source="sWBcIhw8JRlHLq3hAACJ-53" target="sWBcIhw8JRlHLq3hAACJ-28" edge="1">
          <mxGeometry width="50" height="50" relative="1" as="geometry">
            <mxPoint x="990" y="-140" as="sourcePoint" />
            <mxPoint x="1045" y="111" as="targetPoint" />
          </mxGeometry>
        </mxCell>
        <mxCell id="sWBcIhw8JRlHLq3hAACJ-60" value="" style="endArrow=none;html=1;rounded=0;entryX=0.686;entryY=0.022;entryDx=0;entryDy=0;exitX=0.5;exitY=1;exitDx=0;exitDy=0;entryPerimeter=0;" parent="1" source="sWBcIhw8JRlHLq3hAACJ-52" target="sWBcIhw8JRlHLq3hAACJ-28" edge="1">
          <mxGeometry width="50" height="50" relative="1" as="geometry">
            <mxPoint x="995" y="-130" as="sourcePoint" />
            <mxPoint x="977" y="71" as="targetPoint" />
          </mxGeometry>
        </mxCell>
        <mxCell id="sWBcIhw8JRlHLq3hAACJ-61" value="" style="endArrow=none;html=1;rounded=0;entryX=1;entryY=0;entryDx=0;entryDy=0;exitX=0;exitY=1;exitDx=0;exitDy=0;" parent="1" source="sWBcIhw8JRlHLq3hAACJ-54" target="sWBcIhw8JRlHLq3hAACJ-28" edge="1">
          <mxGeometry width="50" height="50" relative="1" as="geometry">
            <mxPoint x="1090" y="-180" as="sourcePoint" />
            <mxPoint x="981" y="73" as="targetPoint" />
          </mxGeometry>
        </mxCell>
        <mxCell id="sWBcIhw8JRlHLq3hAACJ-65" value="&quot;Включает&quot;" style="text;html=1;strokeColor=none;fillColor=none;align=center;verticalAlign=middle;whiteSpace=wrap;rounded=0;rotation=80;" parent="1" vertex="1">
          <mxGeometry x="900" y="-20" width="60" height="30" as="geometry" />
        </mxCell>
        <mxCell id="sWBcIhw8JRlHLq3hAACJ-70" value="&quot;Включает&quot;" style="text;html=1;strokeColor=none;fillColor=none;align=center;verticalAlign=middle;whiteSpace=wrap;rounded=0;rotation=-65;" parent="1" vertex="1">
          <mxGeometry x="1000" y="-40" width="60" height="30" as="geometry" />
        </mxCell>
        <mxCell id="sWBcIhw8JRlHLq3hAACJ-71" value="&quot;Включает&quot;" style="text;html=1;strokeColor=none;fillColor=none;align=center;verticalAlign=middle;whiteSpace=wrap;rounded=0;rotation=-55;" parent="1" vertex="1">
          <mxGeometry x="1010" y="10" width="60" height="30" as="geometry" />
        </mxCell>
        <mxCell id="sWBcIhw8JRlHLq3hAACJ-77" value="Поиск осуществляется по: текущему местоположению и по всем местам посещённым им локаций" style="ellipse;whiteSpace=wrap;html=1;" parent="1" vertex="1">
          <mxGeometry x="730" y="-300" width="230" height="100" as="geometry" />
        </mxCell>
        <mxCell id="sWBcIhw8JRlHLq3hAACJ-78" value="" style="endArrow=none;html=1;rounded=0;entryX=0.5;entryY=0;entryDx=0;entryDy=0;exitX=0.5;exitY=1;exitDx=0;exitDy=0;" parent="1" source="sWBcIhw8JRlHLq3hAACJ-77" target="sWBcIhw8JRlHLq3hAACJ-51" edge="1">
          <mxGeometry width="50" height="50" relative="1" as="geometry">
            <mxPoint x="815" y="-170" as="sourcePoint" />
            <mxPoint x="849" y="-30" as="targetPoint" />
          </mxGeometry>
        </mxCell>
        <mxCell id="kHsEzfDUYx1Xh5ohAl7D-1" value="&quot;Включает&quot;" style="text;html=1;strokeColor=none;fillColor=none;align=center;verticalAlign=middle;whiteSpace=wrap;rounded=0;rotation=55;" parent="1" vertex="1">
          <mxGeometry x="815" y="-180" width="60" height="30" as="geometry" />
        </mxCell>
        <mxCell id="kHsEzfDUYx1Xh5ohAl7D-2" value="&quot;Включает&quot;" style="text;html=1;strokeColor=none;fillColor=none;align=center;verticalAlign=middle;whiteSpace=wrap;rounded=0;rotation=-80;" parent="1" vertex="1">
          <mxGeometry x="955" y="-70" width="60" height="30" as="geometry" />
        </mxCell>
        <mxCell id="kHsEzfDUYx1Xh5ohAl7D-3" value="Тип животного" style="ellipse;whiteSpace=wrap;html=1;" parent="1" vertex="1">
          <mxGeometry x="960" y="180" width="130" height="50" as="geometry" />
        </mxCell>
        <mxCell id="kHsEzfDUYx1Xh5ohAl7D-4" value="" style="endArrow=none;html=1;rounded=0;exitX=0;exitY=0.5;exitDx=0;exitDy=0;" parent="1" source="kHsEzfDUYx1Xh5ohAl7D-3" edge="1">
          <mxGeometry width="50" height="50" relative="1" as="geometry">
            <mxPoint x="927" y="130" as="sourcePoint" />
            <mxPoint x="885" y="182" as="targetPoint" />
          </mxGeometry>
        </mxCell>
        <mxCell id="kHsEzfDUYx1Xh5ohAl7D-5" value="&quot;Включает&quot;" style="text;html=1;strokeColor=none;fillColor=none;align=center;verticalAlign=middle;whiteSpace=wrap;rounded=0;rotation=15;" parent="1" vertex="1">
          <mxGeometry x="895" y="200" width="60" height="30" as="geometry" />
        </mxCell>
        <mxCell id="kHsEzfDUYx1Xh5ohAl7D-6" value="" style="endArrow=none;html=1;rounded=0;exitX=0;exitY=1;exitDx=0;exitDy=0;entryX=0.5;entryY=0;entryDx=0;entryDy=0;" parent="1" source="kHsEzfDUYx1Xh5ohAl7D-7" target="kHsEzfDUYx1Xh5ohAl7D-3" edge="1">
          <mxGeometry width="50" height="50" relative="1" as="geometry">
            <mxPoint x="1220" y="140" as="sourcePoint" />
            <mxPoint x="1160" y="200" as="targetPoint" />
          </mxGeometry>
        </mxCell>
        <mxCell id="kHsEzfDUYx1Xh5ohAl7D-7" value="Просмотр информации о типе животного" style="ellipse;whiteSpace=wrap;html=1;" parent="1" vertex="1">
          <mxGeometry x="1050" y="90" width="130" height="50" as="geometry" />
        </mxCell>
        <mxCell id="kHsEzfDUYx1Xh5ohAl7D-8" value="&quot;Включает&quot;" style="text;html=1;strokeColor=none;fillColor=none;align=center;verticalAlign=middle;whiteSpace=wrap;rounded=0;rotation=-50;" parent="1" vertex="1">
          <mxGeometry x="1000" y="135" width="60" height="30" as="geometry" />
        </mxCell>
        <mxCell id="kHsEzfDUYx1Xh5ohAl7D-11" value="Создание животного" style="ellipse;whiteSpace=wrap;html=1;" parent="1" vertex="1">
          <mxGeometry x="1170" y="150" width="130" height="50" as="geometry" />
        </mxCell>
        <mxCell id="kHsEzfDUYx1Xh5ohAl7D-12" value="Изменение животного" style="ellipse;whiteSpace=wrap;html=1;" parent="1" vertex="1">
          <mxGeometry x="1145" y="230" width="130" height="50" as="geometry" />
        </mxCell>
        <mxCell id="kHsEzfDUYx1Xh5ohAl7D-13" value="Удаление животного" style="ellipse;whiteSpace=wrap;html=1;" parent="1" vertex="1">
          <mxGeometry x="1000" y="290" width="130" height="50" as="geometry" />
        </mxCell>
        <mxCell id="kHsEzfDUYx1Xh5ohAl7D-15" value="" style="endArrow=none;html=1;rounded=0;exitX=0.5;exitY=0;exitDx=0;exitDy=0;entryX=0.5;entryY=1;entryDx=0;entryDy=0;" parent="1" source="kHsEzfDUYx1Xh5ohAl7D-13" target="kHsEzfDUYx1Xh5ohAl7D-3" edge="1">
          <mxGeometry width="50" height="50" relative="1" as="geometry">
            <mxPoint x="1090" y="280" as="sourcePoint" />
            <mxPoint x="1015" y="257" as="targetPoint" />
          </mxGeometry>
        </mxCell>
        <mxCell id="kHsEzfDUYx1Xh5ohAl7D-16" value="" style="endArrow=none;html=1;rounded=0;exitX=0;exitY=0;exitDx=0;exitDy=0;entryX=1;entryY=0.5;entryDx=0;entryDy=0;" parent="1" source="kHsEzfDUYx1Xh5ohAl7D-12" target="kHsEzfDUYx1Xh5ohAl7D-3" edge="1">
          <mxGeometry width="50" height="50" relative="1" as="geometry">
            <mxPoint x="1055" y="280" as="sourcePoint" />
            <mxPoint x="1035" y="240" as="targetPoint" />
          </mxGeometry>
        </mxCell>
        <mxCell id="kHsEzfDUYx1Xh5ohAl7D-17" value="" style="endArrow=none;html=1;rounded=0;entryX=1;entryY=0;entryDx=0;entryDy=0;" parent="1" source="kHsEzfDUYx1Xh5ohAl7D-11" target="kHsEzfDUYx1Xh5ohAl7D-3" edge="1">
          <mxGeometry width="50" height="50" relative="1" as="geometry">
            <mxPoint x="1117.5" y="173" as="sourcePoint" />
            <mxPoint x="1042.5" y="150" as="targetPoint" />
          </mxGeometry>
        </mxCell>
        <mxCell id="kHsEzfDUYx1Xh5ohAl7D-18" value="&quot;Включает&quot;" style="text;html=1;strokeColor=none;fillColor=none;align=center;verticalAlign=middle;whiteSpace=wrap;rounded=0;rotation=-5;" parent="1" vertex="1">
          <mxGeometry x="1110" y="180" width="60" height="30" as="geometry" />
        </mxCell>
        <mxCell id="kHsEzfDUYx1Xh5ohAl7D-19" value="&quot;Включает&quot;" style="text;html=1;strokeColor=none;fillColor=none;align=center;verticalAlign=middle;whiteSpace=wrap;rounded=0;rotation=60;" parent="1" vertex="1">
          <mxGeometry x="990" y="250" width="60" height="30" as="geometry" />
        </mxCell>
        <mxCell id="kHsEzfDUYx1Xh5ohAl7D-20" value="&quot;Включает&quot;" style="text;html=1;strokeColor=none;fillColor=none;align=center;verticalAlign=middle;whiteSpace=wrap;rounded=0;rotation=25;" parent="1" vertex="1">
          <mxGeometry x="1085" y="220" width="60" height="30" as="geometry" />
        </mxCell>
        <mxCell id="kHsEzfDUYx1Xh5ohAl7D-21" value="Точка местоположения" style="ellipse;whiteSpace=wrap;html=1;" parent="1" vertex="1">
          <mxGeometry x="500" y="115" width="130" height="50" as="geometry" />
        </mxCell>
        <mxCell id="kHsEzfDUYx1Xh5ohAl7D-22" value="" style="endArrow=none;html=1;rounded=0;exitX=1;exitY=0.5;exitDx=0;exitDy=0;" parent="1" source="kHsEzfDUYx1Xh5ohAl7D-21" edge="1">
          <mxGeometry width="50" height="50" relative="1" as="geometry">
            <mxPoint x="875" y="135" as="sourcePoint" />
            <mxPoint x="830" y="170" as="targetPoint" />
          </mxGeometry>
        </mxCell>
        <mxCell id="kHsEzfDUYx1Xh5ohAl7D-24" value="Просмотр информации о точке локации" style="ellipse;whiteSpace=wrap;html=1;" parent="1" vertex="1">
          <mxGeometry x="430" width="130" height="50" as="geometry" />
        </mxCell>
        <mxCell id="kHsEzfDUYx1Xh5ohAl7D-25" value="Создание точки локации" style="ellipse;whiteSpace=wrap;html=1;" parent="1" vertex="1">
          <mxGeometry x="320" y="60" width="130" height="50" as="geometry" />
        </mxCell>
        <mxCell id="kHsEzfDUYx1Xh5ohAl7D-26" value="Изменение точки локации" style="ellipse;whiteSpace=wrap;html=1;" parent="1" vertex="1">
          <mxGeometry x="310" y="140" width="130" height="50" as="geometry" />
        </mxCell>
        <mxCell id="kHsEzfDUYx1Xh5ohAl7D-27" value="Удаление точки локации" style="ellipse;whiteSpace=wrap;html=1;" parent="1" vertex="1">
          <mxGeometry x="430" y="220" width="130" height="50" as="geometry" />
        </mxCell>
        <mxCell id="kHsEzfDUYx1Xh5ohAl7D-28" value="" style="endArrow=none;html=1;rounded=0;entryX=0.5;entryY=1;entryDx=0;entryDy=0;exitX=0.5;exitY=0;exitDx=0;exitDy=0;" parent="1" source="kHsEzfDUYx1Xh5ohAl7D-21" target="kHsEzfDUYx1Xh5ohAl7D-24" edge="1">
          <mxGeometry width="50" height="50" relative="1" as="geometry">
            <mxPoint x="660" y="130" as="sourcePoint" />
            <mxPoint x="580" y="60" as="targetPoint" />
          </mxGeometry>
        </mxCell>
        <mxCell id="kHsEzfDUYx1Xh5ohAl7D-29" value="&quot;Включает&quot;" style="text;html=1;strokeColor=none;fillColor=none;align=center;verticalAlign=middle;whiteSpace=wrap;rounded=0;rotation=10;" parent="1" vertex="1">
          <mxGeometry x="680" y="125" width="60" height="30" as="geometry" />
        </mxCell>
        <mxCell id="kHsEzfDUYx1Xh5ohAl7D-30" value="&quot;Включает&quot;" style="text;html=1;strokeColor=none;fillColor=none;align=center;verticalAlign=middle;whiteSpace=wrap;rounded=0;rotation=45;" parent="1" vertex="1">
          <mxGeometry x="530" y="70" width="60" height="30" as="geometry" />
        </mxCell>
        <mxCell id="kHsEzfDUYx1Xh5ohAl7D-32" value="" style="endArrow=none;html=1;rounded=0;entryX=1;entryY=1;entryDx=0;entryDy=0;exitX=0;exitY=0;exitDx=0;exitDy=0;" parent="1" source="kHsEzfDUYx1Xh5ohAl7D-21" target="kHsEzfDUYx1Xh5ohAl7D-25" edge="1">
          <mxGeometry width="50" height="50" relative="1" as="geometry">
            <mxPoint x="575" y="125" as="sourcePoint" />
            <mxPoint x="505" y="60" as="targetPoint" />
          </mxGeometry>
        </mxCell>
        <mxCell id="kHsEzfDUYx1Xh5ohAl7D-33" value="" style="endArrow=none;html=1;rounded=0;entryX=1;entryY=0.5;entryDx=0;entryDy=0;exitX=0;exitY=1;exitDx=0;exitDy=0;" parent="1" source="kHsEzfDUYx1Xh5ohAl7D-21" target="kHsEzfDUYx1Xh5ohAl7D-26" edge="1">
          <mxGeometry width="50" height="50" relative="1" as="geometry">
            <mxPoint x="529" y="132" as="sourcePoint" />
            <mxPoint x="460" y="105" as="targetPoint" />
          </mxGeometry>
        </mxCell>
        <mxCell id="kHsEzfDUYx1Xh5ohAl7D-34" value="" style="endArrow=none;html=1;rounded=0;entryX=0.5;entryY=0;entryDx=0;entryDy=0;exitX=0.5;exitY=1;exitDx=0;exitDy=0;" parent="1" source="kHsEzfDUYx1Xh5ohAl7D-21" target="kHsEzfDUYx1Xh5ohAl7D-27" edge="1">
          <mxGeometry width="50" height="50" relative="1" as="geometry">
            <mxPoint x="529" y="168" as="sourcePoint" />
            <mxPoint x="450" y="215" as="targetPoint" />
          </mxGeometry>
        </mxCell>
        <mxCell id="kHsEzfDUYx1Xh5ohAl7D-35" value="&quot;Включает&quot;" style="text;html=1;strokeColor=none;fillColor=none;align=center;verticalAlign=middle;whiteSpace=wrap;rounded=0;rotation=13;" parent="1" vertex="1">
          <mxGeometry x="460" y="80" width="60" height="30" as="geometry" />
        </mxCell>
        <mxCell id="kHsEzfDUYx1Xh5ohAl7D-36" value="&quot;Включает&quot;" style="text;html=1;strokeColor=none;fillColor=none;align=center;verticalAlign=middle;whiteSpace=wrap;rounded=0;rotation=-4;" parent="1" vertex="1">
          <mxGeometry x="440" y="135" width="60" height="30" as="geometry" />
        </mxCell>
        <mxCell id="kHsEzfDUYx1Xh5ohAl7D-37" value="&quot;Включает&quot;" style="text;html=1;strokeColor=none;fillColor=none;align=center;verticalAlign=middle;whiteSpace=wrap;rounded=0;rotation=-40;" parent="1" vertex="1">
          <mxGeometry x="480" y="180" width="60" height="30" as="geometry" />
        </mxCell>
        <mxCell id="kHsEzfDUYx1Xh5ohAl7D-39" value="" style="endArrow=none;html=1;rounded=0;exitX=0.5;exitY=0;exitDx=0;exitDy=0;" parent="1" source="kHsEzfDUYx1Xh5ohAl7D-40" edge="1">
          <mxGeometry width="50" height="50" relative="1" as="geometry">
            <mxPoint x="710" y="220" as="sourcePoint" />
            <mxPoint x="830" y="180" as="targetPoint" />
          </mxGeometry>
        </mxCell>
        <mxCell id="kHsEzfDUYx1Xh5ohAl7D-40" value="Место посещения животных" style="ellipse;whiteSpace=wrap;html=1;" parent="1" vertex="1">
          <mxGeometry x="645" y="210" width="130" height="50" as="geometry" />
        </mxCell>
        <mxCell id="kHsEzfDUYx1Xh5ohAl7D-41" value="Просмотр информации о перемещении животного" style="ellipse;whiteSpace=wrap;html=1;" parent="1" vertex="1">
          <mxGeometry x="805" y="340" width="150" height="60" as="geometry" />
        </mxCell>
        <mxCell id="kHsEzfDUYx1Xh5ohAl7D-42" value="Создание точки локации у животного" style="ellipse;whiteSpace=wrap;html=1;" parent="1" vertex="1">
          <mxGeometry x="520" y="300" width="130" height="50" as="geometry" />
        </mxCell>
        <mxCell id="kHsEzfDUYx1Xh5ohAl7D-43" value="Изменение точки локации у животного" style="ellipse;whiteSpace=wrap;html=1;" parent="1" vertex="1">
          <mxGeometry x="645" y="360" width="130" height="50" as="geometry" />
        </mxCell>
        <mxCell id="kHsEzfDUYx1Xh5ohAl7D-44" value="Удаление точки локации у животного" style="ellipse;whiteSpace=wrap;html=1;" parent="1" vertex="1">
          <mxGeometry x="835" y="250" width="130" height="50" as="geometry" />
        </mxCell>
        <mxCell id="kHsEzfDUYx1Xh5ohAl7D-45" value="" style="endArrow=none;html=1;rounded=0;exitX=0;exitY=1;exitDx=0;exitDy=0;entryX=0.5;entryY=0;entryDx=0;entryDy=0;" parent="1" source="kHsEzfDUYx1Xh5ohAl7D-40" target="kHsEzfDUYx1Xh5ohAl7D-42" edge="1">
          <mxGeometry width="50" height="50" relative="1" as="geometry">
            <mxPoint x="680" y="340" as="sourcePoint" />
            <mxPoint x="800" y="310" as="targetPoint" />
          </mxGeometry>
        </mxCell>
        <mxCell id="kHsEzfDUYx1Xh5ohAl7D-46" value="" style="endArrow=none;html=1;rounded=0;exitX=0.5;exitY=1;exitDx=0;exitDy=0;entryX=0.5;entryY=0;entryDx=0;entryDy=0;" parent="1" source="kHsEzfDUYx1Xh5ohAl7D-40" target="kHsEzfDUYx1Xh5ohAl7D-43" edge="1">
          <mxGeometry width="50" height="50" relative="1" as="geometry">
            <mxPoint x="674" y="263" as="sourcePoint" />
            <mxPoint x="595" y="310" as="targetPoint" />
          </mxGeometry>
        </mxCell>
        <mxCell id="kHsEzfDUYx1Xh5ohAl7D-47" value="" style="endArrow=none;html=1;rounded=0;exitX=1;exitY=0.5;exitDx=0;exitDy=0;entryX=0;entryY=0;entryDx=0;entryDy=0;" parent="1" source="kHsEzfDUYx1Xh5ohAl7D-40" target="kHsEzfDUYx1Xh5ohAl7D-44" edge="1">
          <mxGeometry width="50" height="50" relative="1" as="geometry">
            <mxPoint x="720" y="270" as="sourcePoint" />
            <mxPoint x="720" y="370" as="targetPoint" />
          </mxGeometry>
        </mxCell>
        <mxCell id="kHsEzfDUYx1Xh5ohAl7D-48" value="" style="endArrow=none;html=1;rounded=0;exitX=1;exitY=1;exitDx=0;exitDy=0;" parent="1" source="kHsEzfDUYx1Xh5ohAl7D-40" target="kHsEzfDUYx1Xh5ohAl7D-41" edge="1">
          <mxGeometry width="50" height="50" relative="1" as="geometry">
            <mxPoint x="785" y="245" as="sourcePoint" />
            <mxPoint x="864" y="267" as="targetPoint" />
          </mxGeometry>
        </mxCell>
        <mxCell id="kHsEzfDUYx1Xh5ohAl7D-49" value="&quot;Включает&quot;" style="text;html=1;strokeColor=none;fillColor=none;align=center;verticalAlign=middle;whiteSpace=wrap;rounded=0;rotation=-20;" parent="1" vertex="1">
          <mxGeometry x="730" y="170" width="60" height="30" as="geometry" />
        </mxCell>
        <mxCell id="kHsEzfDUYx1Xh5ohAl7D-50" value="&quot;Включает&quot;" style="text;html=1;strokeColor=none;fillColor=none;align=center;verticalAlign=middle;whiteSpace=wrap;rounded=0;rotation=-30;" parent="1" vertex="1">
          <mxGeometry x="620" y="270" width="60" height="30" as="geometry" />
        </mxCell>
        <mxCell id="kHsEzfDUYx1Xh5ohAl7D-51" value="&quot;Включает&quot;" style="text;html=1;strokeColor=none;fillColor=none;align=center;verticalAlign=middle;whiteSpace=wrap;rounded=0;rotation=-90;" parent="1" vertex="1">
          <mxGeometry x="695" y="300" width="60" height="30" as="geometry" />
        </mxCell>
        <mxCell id="kHsEzfDUYx1Xh5ohAl7D-53" value="&quot;Включает&quot;" style="text;html=1;strokeColor=none;fillColor=none;align=center;verticalAlign=middle;whiteSpace=wrap;rounded=0;rotation=45;" parent="1" vertex="1">
          <mxGeometry x="755" y="290" width="60" height="30" as="geometry" />
        </mxCell>
        <mxCell id="kHsEzfDUYx1Xh5ohAl7D-54" value="&quot;Включает&quot;" style="text;html=1;strokeColor=none;fillColor=none;align=center;verticalAlign=middle;whiteSpace=wrap;rounded=0;rotation=15;" parent="1" vertex="1">
          <mxGeometry x="800" y="220.00000000000003" width="60" height="30" as="geometry" />
        </mxCell>
      </root>
    </mxGraphModel>
  </diagram>
</mxfile>
